PathFileType	4	(X/Y/Z)	C:\Git\research_data\torsion_deformities_healthy_kinematics\simulations\P01\post\Stand01\marker_experimental_HJC.trc
DataRate	CameraRate	NumFrames	NumMarkers	Units	OrigDataRate	OrigDataStartFrame	OrigNumFrames
150	150	2	231	mm	150	113	150
Frame#	Time	LFHD			LBHD			RFHD			RBHD			C7			T10			CLAV			STRN			RBAK			LSHO			LUPA			LELB			LFRA			LWRB			LWRA			LFIN			RSHO			RUPA			RELB			RFRA			RWRB			RWRA			RFIN			SACR			LASI			RASI			LT1			LT2			LT3			LS1			LS2			LS3			LHEE			LTOE			RT1			RT2			RT3			RS1			RS2			RS3			RHEE			RTOE			PELO			PELA			PELL			PELP			SACO			SACA			SACL			SACP			LFEO			LFEA			LFEL			LFEP			RFEO			RFEA			RFEL			RFEP			LTIO			LTIA			LTIL			LTIP			RTIO			RTIA			RTIL			RTIP			LFOO			LFOA			LFOL			LFOP			RFOO			RFOA			RFOL			RFOP			LTOO			LTOA			LTOL			LTOP			RTOO			RTOA			RTOL			RTOP			HEDO			HEDA			HEDL			HEDP			LCLO			LCLA			LCLL			LCLP			RCLO			RCLA			RCLL			RCLP			TRXO			TRXA			TRXL			TRXP			LHUO			LHUA			LHUL			LHUP			LRAO			LRAA			LRAL			LRAP			LHNO			LHNA			LHNL			LHNP			RHUO			RHUA			RHUL			RHUP			RRAO			RRAA			RRAL			RRAP			RHNO			RHNA			RHNL			RHNP			LPelvisAngles			RPelvisAngles			LFootProgressAngles			RFootProgressAngles			LHipAngles			RHipAngles			LKneeAngles			RKneeAngles			LAnkleAngles			RAnkleAngles			LFFootAngles			RFFootAngles			LAbsAnkleAngle			RAbsAnkleAngle			RNeckAngles			LNeckAngles			RSpineAngles			LSpineAngles			LShoulderAngles			LElbowAngles			LWristAngles			RShoulderAngles			RElbowAngles			RWristAngles			RThoraxAngles			LThoraxAngles			RHeadAngles			LHeadAngles			LHipPower			LKneePower			LAnklePower			RHipPower			RKneePower			RAnklePower			LWaistPower			RWaistPower			LNeckPower			RNeckPower			LShoulderPower			RShoulderPower			LElbowPower			RElbowPower			LWristPower			RWristPower			F_ForcePlate1			F_ForcePlate2			F_ForcePlate3			LGRF			RGRF			LHipForce			RHipForce			LKneeForce			RKneeForce			LAnkleForce			RAnkleForce			LWaistForce			RWaistForce			LNeckForce			RNeckForce			LShoulderForce			RShoulderForce			LElbowForce			RElbowForce			LWristForce			RWristForce			LNormalisedGRF			RNormalisedGRF			LGroundReactionForce			RGroundReactionForce			LHipMoment			RHipMoment			LKneeMoment			RKneeMoment			LAnkleMoment			RAnkleMoment			LWaistMoment			RWaistMoment			LNeckMoment			RNeckMoment			LShoulderMoment			RShoulderMoment			LElbowMoment			RElbowMoment			LWristMoment			RWristMoment			LKNE			RKNE			LANK			RANK			LKJC			RKJC			LAJC			RAJC			LTHI			RTHI			LTIB			RTIB			P_ForcePlate1			P_ForcePlate2			P_ForcePlate3			CentreOfMass			CentreOfMassFloor			funktRKJC			funktLKJC			funktRHIP			funktLHIP			LHJC			RHJC			LHF		
		X1	Y1	Z1	X2	Y2	Z2	X3	Y3	Z3	X4	Y4	Z4	X5	Y5	Z5	X6	Y6	Z6	X7	Y7	Z7	X8	Y8	Z8	X9	Y9	Z9	X10	Y10	Z10	X11	Y11	Z11	X12	Y12	Z12	X13	Y13	Z13	X14	Y14	Z14	X15	Y15	Z15	X16	Y16	Z16	X17	Y17	Z17	X18	Y18	Z18	X19	Y19	Z19	X20	Y20	Z20	X21	Y21	Z21	X22	Y22	Z22	X23	Y23	Z23	X24	Y24	Z24	X25	Y25	Z25	X26	Y26	Z26	X27	Y27	Z27	X28	Y28	Z28	X29	Y29	Z29	X30	Y30	Z30	X31	Y31	Z31	X32	Y32	Z32	X33	Y33	Z33	X34	Y34	Z34	X35	Y35	Z35	X36	Y36	Z36	X37	Y37	Z37	X38	Y38	Z38	X39	Y39	Z39	X40	Y40	Z40	X41	Y41	Z41	X42	Y42	Z42	X43	Y43	Z43	X44	Y44	Z44	X45	Y45	Z45	X46	Y46	Z46	X47	Y47	Z47	X48	Y48	Z48	X49	Y49	Z49	X50	Y50	Z50	X51	Y51	Z51	X52	Y52	Z52	X53	Y53	Z53	X54	Y54	Z54	X55	Y55	Z55	X56	Y56	Z56	X57	Y57	Z57	X58	Y58	Z58	X59	Y59	Z59	X60	Y60	Z60	X61	Y61	Z61	X62	Y62	Z62	X63	Y63	Z63	X64	Y64	Z64	X65	Y65	Z65	X66	Y66	Z66	X67	Y67	Z67	X68	Y68	Z68	X69	Y69	Z69	X70	Y70	Z70	X71	Y71	Z71	X72	Y72	Z72	X73	Y73	Z73	X74	Y74	Z74	X75	Y75	Z75	X76	Y76	Z76	X77	Y77	Z77	X78	Y78	Z78	X79	Y79	Z79	X80	Y80	Z80	X81	Y81	Z81	X82	Y82	Z82	X83	Y83	Z83	X84	Y84	Z84	X85	Y85	Z85	X86	Y86	Z86	X87	Y87	Z87	X88	Y88	Z88	X89	Y89	Z89	X90	Y90	Z90	X91	Y91	Z91	X92	Y92	Z92	X93	Y93	Z93	X94	Y94	Z94	X95	Y95	Z95	X96	Y96	Z96	X97	Y97	Z97	X98	Y98	Z98	X99	Y99	Z99	X100	Y100	Z100	X101	Y101	Z101	X102	Y102	Z102	X103	Y103	Z103	X104	Y104	Z104	X105	Y105	Z105	X106	Y106	Z106	X107	Y107	Z107	X108	Y108	Z108	X109	Y109	Z109	X110	Y110	Z110	X111	Y111	Z111	X112	Y112	Z112	X113	Y113	Z113	X114	Y114	Z114	X115	Y115	Z115	X116	Y116	Z116	X117	Y117	Z117	X118	Y118	Z118	X119	Y119	Z119	X120	Y120	Z120	X121	Y121	Z121	X122	Y122	Z122	X123	Y123	Z123	X124	Y124	Z124	X125	Y125	Z125	X126	Y126	Z126	X127	Y127	Z127	X128	Y128	Z128	X129	Y129	Z129	X130	Y130	Z130	X131	Y131	Z131	X132	Y132	Z132	X133	Y133	Z133	X134	Y134	Z134	X135	Y135	Z135	X136	Y136	Z136	X137	Y137	Z137	X138	Y138	Z138	X139	Y139	Z139	X140	Y140	Z140	X141	Y141	Z141	X142	Y142	Z142	X143	Y143	Z143	X144	Y144	Z144	X145	Y145	Z145	X146	Y146	Z146	X147	Y147	Z147	X148	Y148	Z148	X149	Y149	Z149	X150	Y150	Z150	X151	Y151	Z151	X152	Y152	Z152	X153	Y153	Z153	X154	Y154	Z154	X155	Y155	Z155	X156	Y156	Z156	X157	Y157	Z157	X158	Y158	Z158	X159	Y159	Z159	X160	Y160	Z160	X161	Y161	Z161	X162	Y162	Z162	X163	Y163	Z163	X164	Y164	Z164	X165	Y165	Z165	X166	Y166	Z166	X167	Y167	Z167	X168	Y168	Z168	X169	Y169	Z169	X170	Y170	Z170	X171	Y171	Z171	X172	Y172	Z172	X173	Y173	Z173	X174	Y174	Z174	X175	Y175	Z175	X176	Y176	Z176	X177	Y177	Z177	X178	Y178	Z178	X179	Y179	Z179	X180	Y180	Z180	X181	Y181	Z181	X182	Y182	Z182	X183	Y183	Z183	X184	Y184	Z184	X185	Y185	Z185	X186	Y186	Z186	X187	Y187	Z187	X188	Y188	Z188	X189	Y189	Z189	X190	Y190	Z190	X191	Y191	Z191	X192	Y192	Z192	X193	Y193	Z193	X194	Y194	Z194	X195	Y195	Z195	X196	Y196	Z196	X197	Y197	Z197	X198	Y198	Z198	X199	Y199	Z199	X200	Y200	Z200	X201	Y201	Z201	X202	Y202	Z202	X203	Y203	Z203	X204	Y204	Z204	X205	Y205	Z205	X206	Y206	Z206	X207	Y207	Z207	X208	Y208	Z208	X209	Y209	Z209	X210	Y210	Z210	X211	Y211	Z211	X212	Y212	Z212	X213	Y213	Z213	X214	Y214	Z214	X215	Y215	Z215	X216	Y216	Z216	X217	Y217	Z217	X218	Y218	Z218	X219	Y219	Z219	X220	Y220	Z220	X221	Y221	Z221	X222	Y222	Z222	X223	Y223	Z223	X224	Y224	Z224	X225	Y225	Z225	X226	Y226	Z226	X227	Y227	Z227	X228	Y228	Z228	X229	Y229	Z229	X230	Y230	Z230	X231	Y231	Z231	

113	0.746667	-334.524902	1545.655396	1298.716797	-333.256988	1521.625366	1159.429565	-461.260834	1542.882080	1306.829102	-484.163879	1518.219360	1180.991211	-400.725403	1406.274048	1149.322266	-393.567657	1225.856934	1086.552856	-406.470032	1338.797852	1266.670288	-407.436859	1302.444946	1287.281372	-508.222900	1267.422974	1077.313354	-254.249039	1379.960571	1182.127563	-145.988617	1189.538452	1152.276611	-88.414711	1114.015015	1172.529907	-41.942738	1070.809082	1193.493408	48.195160	940.266541	1269.564087	22.190800	948.569458	1333.808105	77.816338	899.752380	1350.977417	-554.684021	1367.650269	1176.035645	-622.740112	1281.570679	1157.089478	-694.342285	1092.609619	1146.592651	-817.398498	951.839356	1203.218140	-842.921570	909.713318	1221.348145	-842.418091	935.196655	1287.106201	-900.750488	883.501099	1296.711182	-393.838013	971.745850	1082.494751	-254.222717	934.102478	1268.921509	-540.461670	934.135376	1260.146973	-206.388626	643.554199	1238.596558	-191.138397	553.440247	1156.787109	-235.408066	566.814087	1292.538208	-202.928482	258.292572	1179.114136	-188.162842	179.798782	1086.940308	-227.637314	178.459885	1223.557373	-275.592133	39.420918	1091.234619	-226.266617	38.883694	1252.056763	-583.759827	660.947998	1197.704102	-555.281494	589.723022	1100.270630	-582.720947	572.097534	1240.398193	-577.051697	267.649872	1153.728882	-555.143677	203.126785	1053.643311	-571.266785	182.390030	1193.424927	-495.218720	41.360432	1085.186279	-539.868957	39.881168	1246.290649	-395.316742	848.701355	1199.119385	-395.770660	845.642395	1213.913574	-382.727753	848.699890	1199.505371	-396.083588	972.043762	1224.599121	-393.560028	959.610168	1141.249878	-393.749084	958.335571	1147.414063	-387.265533	959.609436	1141.442749	-393.943390	1021.281311	1153.989868	-281.582428	469.635864	1218.528564	-274.827209	472.268005	1256.126465	-244.236359	474.315918	1211.490967	-332.374084	848.757080	1201.112915	-498.713715	473.882996	1206.600098	-505.872650	475.590668	1243.580811	-461.915344	470.095276	1213.898682	-458.259583	848.645752	1197.125854	-266.461334	45.476330	1149.563599	-248.430984	40.677654	1183.030518	-231.553009	49.680634	1131.359497	-280.384735	436.039093	1213.065918	-505.438080	50.514927	1142.213501	-521.120850	45.318111	1178.022583	-469.259247	47.595047	1157.634521	-499.246338	440.348846	1201.500122	-227.006302	49.218433	1252.774902	-227.958786	62.526253	1253.699707	-214.260498	50.399910	1248.900757	-266.373535	55.272846	1125.104980	-539.517517	50.044163	1247.250000	-539.061890	63.219460	1248.493652	-526.743530	49.281094	1250.653809	-504.933777	60.870346	1119.888062	-214.081573	47.577152	1294.795898	-214.382355	51.779625	1295.088013	-210.056595	47.950264	1293.572510	-226.513184	49.489441	1254.479126	-550.881775	46.829567	1289.178101	-550.737854	50.990181	1289.570801	-546.847839	46.588558	1290.252930	-539.960998	50.248249	1248.958374	-410.305084	1443.477539	1128.776489	-392.235107	1484.146606	1350.214233	-185.352631	1449.315796	1109.347412	-419.527283	1665.574585	1088.738892	-257.855621	1333.171021	1179.532349	-178.320282	1318.826538	1327.620728	-244.909805	1501.121826	1188.847900	-406.072815	1340.142944	1259.812256	-546.882690	1321.378906	1173.371826	-630.919678	1299.050415	1315.113525	-519.281494	1157.669312	1163.947144	-406.072815	1340.142944	1259.812256	-406.072815	1340.142944	1259.812256	-415.577332	1307.956665	1423.912476	-573.233948	1337.358032	1249.584229	-401.378967	1175.791382	1227.848511	-120.441666	1095.547729	1171.034668	-210.155960	1052.822876	915.015930	-340.642456	964.668457	1270.038940	-257.855591	1333.171021	1179.532471	30.851749	939.030212	1300.625244	35.812256	791.671387	1116.856201	-158.061966	826.746826	1385.562500	-109.851135	1084.591553	1180.105957	97.423576	834.486572	1391.470581	209.681305	934.251648	1424.015991	178.543625	782.221680	1271.879761	30.851768	939.030212	1300.625244	-662.238037	1076.799805	1155.992920	-503.489410	1016.939819	944.702820	-849.106567	1176.927979	987.225891	-546.882752	1321.378906	1173.371826	-837.737732	917.810730	1255.989258	-780.011963	752.026856	1093.713623	-1002.597107	1006.145996	1107.099365	-674.522949	1065.670532	1162.992676	-933.796753	825.444580	1345.120117	-1058.084595	920.189270	1309.355103	-901.728821	915.971313	1473.493408	-837.737732	917.810730	1255.989258	-0.348871	1.720843	-11.671800	0.348871	-1.720843	-11.671800	-4.273673	-17.119175	-2.714934	-2.042828	-15.139683	-4.858749	7.706181	-12.022551	-14.071136	6.105203	-9.243919	-13.313777	-3.255534	-16.473722	-12.676298	-3.145872	-11.501982	-10.924567	0.645854	10.613889	-5.728216	0.311153	8.195914	-3.456454	0.000000	0.000000	0.000000	-0.000000	0.000000	0.000000	0.000000	0.000000	-9.340460	0.000000	0.000000	-8.782515	1.086551	-8.382735	21.198029	-1.086551	8.382735	21.198029	-1.292654	1.515340	0.593787	1.292654	-1.515340	0.593787	-29.071915	-29.546726	-6.174727	0.000000	-0.000000	-35.158672	10.951725	123.489998	-1.545848	-26.606403	-40.388512	-7.744976	0.000000	-0.000000	-34.518158	8.392080	115.634186	-7.114501	1.605842	-3.254244	-11.005731	-1.605842	3.254244	-11.005731	2.340073	4.592622	-10.219016	-2.340073	-4.592622	-10.219016	-0.000000	-0.000135	-0.000000	0.000000	0.000003	0.000000	0.000000	0.000032	0.000000	0.000000	0.000195	0.000000	-0.000000	-0.000058	-0.000000	0.000000	0.000038	0.000000	0.000000	0.000786	0.000000	0.000000	0.000786	0.000000	0.000000	0.009136	0.000000	0.000000	0.009136	0.000000	0.000000	0.000109	0.000000	0.000000	0.000109	0.000000	-0.000000	-0.000001	-0.000000	-0.000000	-0.000004	-0.000000	-0.000000	-0.000005	-0.000000	-0.000000	-0.000089	-0.000000	-398.021027	1.304700	259.089996	-231.415008	1.697000	-251.317001	-396.987000	4.582600	-949.962036	0.000000	0.000000	0.000000	0.000000	0.000000	0.000000	-0.193523	1.563877	-0.108357	0.158408	1.569771	-0.071114	-0.063610	0.590298	0.074859	0.044299	0.591494	0.078922	-0.012572	-0.006428	0.141539	0.008198	-0.011630	0.141532	-0.000599	4.457478	0.923028	-0.000599	4.457478	0.923028	-0.150719	8.847476	1.737584	-0.150719	8.847476	1.737584	0.234157	0.424604	0.075995	-0.181758	0.442644	0.108120	0.103085	0.133466	0.134984	-0.080123	0.133553	0.149558	0.020003	0.040087	-0.038272	-0.033094	0.033995	-0.034908	0.000000	0.000000	0.000000	0.000000	0.000000	0.000000	0.000000	0.000000	0.000000	0.000000	0.000000	0.000000	-59.285774	-2.550020	12.636037	-46.539902	-1.696490	4.123694	-15.175501	0.802633	10.410245	-10.486349	0.545352	11.397595	-1.303315	0.733047	7.586237	-0.934453	0.513747	7.543545	-13.880406	-2.856566	-74.307426	13.880406	2.856566	-74.307426	-80.737854	-31.576435	931.395935	80.737854	31.576435	931.395935	-57.242371	-9.871000	36.492188	-44.186501	-7.849900	45.260773	-16.500618	-0.451635	22.193045	-13.089805	-0.524712	25.195547	-1.167905	-0.000000	-2.231454	-2.009100	0.000000	-2.122801	-226.850326	480.004852	1207.968994	-552.645264	482.077942	1195.781372	-230.633972	46.554794	1130.416138	-541.725403	47.101040	1125.825928	-281.582428	469.635864	1218.528687	-498.713715	473.882996	1206.600098	-266.611054	49.675926	1150.246460	-505.371582	54.706688	1142.850952	-194.940002	673.236572	1188.708008	-588.881653	672.627502	1179.967407	-168.698044	253.370606	1126.702515	-610.878723	254.191544	1125.593994	-398.021027	1.304700	259.089996	-231.415008	1.697000	-251.317001	-396.987000	4.582600	-949.962036	-397.743774	934.216003	1237.061646	-397.743774	0.000000	1237.061646	0.000000	0.000000	0.000000	0.000000	0.000000	0.000000	0.000000	0.000000	0.000000	0.000000	0.000000	0.000000	-293.360061	850.333457	1194.700816	-496.870914	850.356847	1188.462276	-0.193523	1.563877	-0.108357	
114	0.753333	-334.532166	1545.658813	1298.717773	-333.270752	1521.628174	1159.430542	-461.268951	1542.878540	1306.841553	-484.178955	1518.213135	1181.004639	-400.737488	1406.270630	1149.331055	-393.578095	1225.848999	1086.572388	-406.468201	1338.803101	1266.680908	-407.431641	1302.451172	1287.296509	-508.234375	1267.410156	1077.336792	-254.255325	1379.966797	1182.125854	-145.987534	1189.550659	1152.271484	-88.408234	1114.030273	1172.523560	-41.929943	1070.827271	1193.482178	48.222748	940.292908	1269.549805	22.229828	948.601807	1333.798950	77.857918	899.786194	1350.962036	-554.690613	1367.642456	1176.057861	-622.747192	1281.559570	1157.125732	-694.343323	1092.591187	1146.648071	-817.391663	951.826843	1203.292725	-842.910156	909.702576	1221.426514	-842.399963	935.187073	1287.185059	-900.722290	883.477600	1296.798340	-393.840851	971.745789	1082.527588	-254.216446	934.102905	1268.949341	-540.454224	934.132629	1260.187134	-206.383469	643.551880	1238.617554	-191.136795	553.440857	1156.803223	-235.400284	566.809937	1292.557739	-202.927414	258.291809	1179.121338	-188.163879	179.800873	1086.945190	-227.635468	178.457489	1223.562622	-275.594360	39.421875	1091.235596	-226.265610	38.883282	1252.057251	-583.758179	660.944702	1197.737671	-555.285767	589.724060	1100.297363	-582.717896	572.094055	1240.427246	-577.049805	267.650147	1153.740723	-555.143250	203.132065	1053.652954	-571.266541	182.388260	1193.433838	-495.218597	41.361614	1085.188354	-539.868591	39.881451	1246.292236	-395.311707	848.700500	1199.152954	-395.764923	845.641479	1213.947021	-382.722717	848.699219	1199.538330	-396.079041	972.042786	1224.633301	-393.558746	959.609558	1141.283813	-393.747559	958.334961	1147.447998	-387.264252	959.608948	1141.476440	-393.942535	1021.280701	1154.024048	-281.577820	469.634216	1218.545776	-274.820953	472.265198	1256.143555	-244.231964	474.314331	1211.506714	-332.368835	848.756958	1201.143799	-498.712830	473.878571	1206.617065	-505.869568	475.584167	1243.598511	-461.913818	470.089966	1213.913208	-458.254578	848.644104	1197.162231	-266.461334	45.476521	1149.566162	-248.430328	40.676586	1183.032471	-231.553314	49.681183	1131.361450	-280.380463	436.037476	1213.082031	-505.440399	50.514256	1142.217285	-521.123169	45.316460	1178.025879	-469.261780	47.593613	1157.638184	-499.245758	440.344818	1201.516113	-227.005295	49.218014	1252.775513	-227.957764	62.525826	1253.700317	-214.259567	50.399513	1248.901123	-266.374786	55.272713	1125.106201	-539.516968	50.044437	1247.251587	-539.061096	63.219727	1248.495239	-526.742920	49.281181	1250.655151	-504.935303	60.870094	1119.889160	-214.079941	47.576420	1294.796265	-214.380768	51.778881	1295.088379	-210.054993	47.949574	1293.572876	-226.511948	49.488869	1254.479614	-550.880493	46.830036	1289.179810	-550.736572	50.990658	1289.572632	-546.846619	46.589005	1290.254639	-539.959961	50.249088	1248.960083	-410.317291	1443.475464	1128.784668	-392.235992	1484.147217	1350.221069	-185.366440	1449.327637	1109.341553	-419.555847	1665.571655	1088.745972	-257.859924	1333.177002	1179.534180	-178.314697	1318.846558	1327.617798	-244.921295	1501.128174	1188.837036	-406.071655	1340.147705	1259.822754	-546.887512	1321.371216	1173.396851	-630.910339	1299.049805	1315.146729	-519.280212	1157.663208	1163.982056	-406.071655	1340.147705	1259.822754	-406.071686	1340.147705	1259.822754	-415.559509	1307.973267	1423.925293	-573.232605	1337.355225	1249.610596	-401.374084	1175.794800	1227.870728	-120.434364	1095.561157	1171.033569	-210.179184	1052.815430	915.029785	-340.614685	964.676331	1270.074341	-257.859924	1333.177002	1179.534180	30.884956	939.059387	1300.614868	35.829655	791.688843	1116.853638	-158.012268	826.770569	1385.583984	-109.841988	1084.606079	1180.104370	97.471733	834.524231	1391.457275	209.735458	934.290588	1423.972900	178.569138	782.247803	1271.857422	30.884918	939.059326	1300.614868	-662.237915	1076.783203	1156.047607	-503.498413	1016.907715	944.750000	-849.122986	1176.891357	987.280579	-546.887512	1321.371216	1173.396851	-837.722717	917.800598	1256.067383	-780.002685	752.007141	1093.806519	-1002.591064	1006.115112	1107.182617	-674.521912	1065.654419	1163.049072	-933.749817	825.412353	1345.209351	-1058.062012	920.132690	1309.465332	-901.681641	915.941711	1473.580566	-837.722717	917.800659	1256.067383	-0.349004	1.718306	-11.672074	0.349004	-1.718306	-11.672074	-4.273744	-17.120043	-2.715376	-2.043840	-15.138728	-4.858465	7.705291	-12.022661	-14.069686	6.106570	-9.242918	-13.310856	-3.255508	-16.472347	-12.676459	-3.146897	-11.505543	-10.923296	0.646053	10.614049	-5.729832	0.311394	8.196954	-3.458436	0.000000	0.000000	0.000000	-0.000000	0.000000	0.000000	0.000000	0.000000	-9.342005	0.000000	0.000000	-8.784314	1.084709	-8.381152	21.194397	-1.084709	8.381152	21.194397	-1.294006	1.512028	0.598180	1.294006	-1.512028	0.598180	-29.072411	-29.548269	-6.173070	-0.000000	0.000000	-35.158638	10.952600	123.485214	-1.545432	-26.606842	-40.390667	-7.745221	0.000000	-0.000000	-34.518005	8.400786	115.637054	-7.104986	1.607144	-3.248534	-11.001669	-1.607144	3.248534	-11.001669	2.344200	4.595487	-10.219294	-2.344200	-4.595487	-10.219294	-0.000000	-0.000141	-0.000000	0.000000	0.000006	0.000000	0.000000	0.000032	0.000000	0.000000	0.000200	0.000000	-0.000000	-0.000059	-0.000000	0.000000	0.000038	0.000000	0.000000	0.000792	0.000000	0.000000	0.000792	0.000000	0.000000	0.009265	0.000000	0.000000	0.009265	0.000000	0.000000	0.000114	0.000000	0.000000	0.000126	0.000000	-0.000000	-0.000001	-0.000000	-0.000000	-0.000014	-0.000000	-0.000000	-0.000005	-0.000000	-0.000000	-0.000093	-0.000000	-398.021027	1.304700	259.089996	-231.415008	1.697000	-251.317001	-396.987000	4.582600	-949.962036	0.000000	0.000000	0.000000	0.000000	0.000000	0.000000	-0.193525	1.563880	-0.108312	0.158441	1.569774	-0.071035	-0.063615	0.590295	0.074878	0.044308	0.591493	0.078935	-0.012573	-0.006429	0.141539	0.008200	-0.011629	0.141532	-0.000649	4.457473	0.923051	-0.000649	4.457473	0.923051	-0.151125	8.847595	1.736960	-0.151125	8.847595	1.736960	0.234167	0.424592	0.076032	-0.181726	0.442654	0.108147	0.103089	0.133452	0.134994	-0.080114	0.133551	0.149569	0.020008	0.040084	-0.038273	-0.033093	0.034004	-0.034902	0.000000	0.000000	0.000000	0.000000	0.000000	0.000000	0.000000	0.000000	0.000000	0.000000	0.000000	0.000000	-59.286716	-2.550277	12.620598	-46.548313	-1.696764	4.100458	-15.176814	0.802693	10.414973	-10.488344	0.545426	11.401096	-1.303308	0.733083	7.586105	-0.934451	0.513820	7.543339	-13.875705	-2.855416	-74.353310	13.875705	2.855416	-74.353310	-80.847458	-31.635475	931.584961	80.847458	31.635475	931.584961	-57.244621	-9.871409	36.500877	-44.180473	-7.849370	45.266453	-16.501249	-0.451700	22.194992	-13.088690	-0.524868	25.196272	-1.168277	-0.000000	-2.231467	-2.008935	0.000000	-2.122427	-226.846237	480.003784	1207.984131	-552.644959	482.074554	1195.802002	-230.634354	46.555447	1130.418091	-541.727783	47.101677	1125.829468	-281.577820	469.634247	1218.545776	-498.712830	473.878571	1206.616943	-266.611023	49.676102	1150.249146	-505.373779	54.705986	1142.854980	-194.935791	673.235901	1188.727417	-588.880798	672.627136	1180.001099	-168.696869	253.371033	1126.710083	-610.878906	254.191421	1125.604126	-398.021027	1.304700	259.089996	-231.415008	1.697000	-251.317001	-396.987000	4.582600	-949.962036	-397.741058	934.217285	1237.077637	-397.741058	0.000000	1237.077637	0.000000	0.000000	0.000000	0.000000	0.000000	0.000000	0.000000	0.000000	0.000000	0.000000	0.000000	0.000000	-293.355764	850.334295	1194.729774	-496.865861	850.355428	1188.499997	-0.193525	1.563880	-0.108312	
